<svg width="18" height="18" viewBox="0 0 18 18" fill="none" xmlns="http://www.w3.org/2000/svg">
<path fill-rule="evenodd" clip-rule="evenodd" d="M2.79337 1.25725C2.40284 0.866725 1.76968 0.866724 1.37915 1.25725L1.257 1.3794C0.86648 1.76992 0.866481 2.40309 1.257 2.79361L7.91347 9.45008L1.7069 15.6566C1.31638 16.0472 1.31638 16.6803 1.7069 17.0709L1.82905 17.193C2.21957 17.5835 2.85274 17.5835 3.24326 17.193L9.44983 10.9864L15.2064 16.743C15.5969 17.1335 16.2301 17.1335 16.6206 16.743L16.7428 16.6209C17.1333 16.2303 17.1333 15.5972 16.7428 15.2067L10.9862 9.45008L17.1927 3.2436C17.5832 2.85308 17.5832 2.21991 17.1927 1.82939L17.0705 1.70724C16.68 1.31671 16.0468 1.31671 15.6563 1.70724L9.44983 7.91371L2.79337 1.25725Z" fill="white"/>
</svg>
